<svg width="21" height="21" viewBox="0 0 21 21" fill="none" xmlns="http://www.w3.org/2000/svg">
<path d="M10.5 0.8125C15.8516 0.8125 20.1875 5.14844 20.1875 10.5C20.1875 15.8516 15.8516 20.1875 10.5 20.1875C5.14844 20.1875 0.8125 15.8516 0.8125 10.5C0.8125 5.14844 5.14844 0.8125 10.5 0.8125ZM15.2266 13.0781L12.6875 10.5L15.2266 7.96094C15.4219 7.80469 15.4219 7.49219 15.2266 7.29688L13.7031 5.77344C13.5078 5.57812 13.1953 5.57812 13.0391 5.77344L10.5 8.3125L7.96094 5.77344C7.76562 5.57812 7.45312 5.57812 7.29688 5.77344L5.73438 7.29688C5.53906 7.49219 5.53906 7.80469 5.73438 7.96094L8.3125 10.5L5.73438 13.0391C5.53906 13.2344 5.53906 13.5469 5.73438 13.7031L7.25781 15.2656C7.45312 15.4609 7.76562 15.4609 7.92188 15.2656L10.5 12.6875L13.0391 15.2656C13.1953 15.4609 13.5078 15.4609 13.7031 15.2656L15.2266 13.7422C15.4219 13.5469 15.4219 13.2344 15.2266 13.0781Z" fill="#E52207"/>
</svg>
