<svg width="11" height="12" viewBox="0 0 11 12" fill="none" xmlns="http://www.w3.org/2000/svg">
<path d="M5.5 6C3.83594 6 2.5 4.66406 2.5 3C2.5 1.35938 3.83594 0 5.5 0C7.14062 0 8.5 1.35938 8.5 3C8.5 4.66406 7.14062 6 5.5 6ZM7.58594 6.75C9.32031 6.75 10.75 8.17969 10.75 9.91406V10.875C10.75 11.5078 10.2344 12 9.625 12H1.375C0.742188 12 0.25 11.5078 0.25 10.875V9.91406C0.25 8.17969 1.65625 6.75 3.39062 6.75H3.78906C4.30469 7.00781 4.89062 7.125 5.5 7.125C6.10938 7.125 6.67188 7.00781 7.1875 6.75H7.58594Z" fill="#1351B4"/>
</svg>
